<?xml version="1.0" encoding="UTF-8" standalone="no"?>
<!-- Created with Inkscape (http://www.inkscape.org/) -->

<svg
   width="210mm"
   height="210mm"
   viewBox="0 0 210 210"
   version="1.1"
   id="svg5"
   xmlns="http://www.w3.org/2000/svg"
   xmlns:svg="http://www.w3.org/2000/svg">
  <defs
     id="defs2">
    <clipPath
       clipPathUnits="userSpaceOnUse"
       id="clipPath58421">
      <rect
         style="fill:#ffffff;fill-opacity:1;stroke-width:0.264583"
         id="rect58423"
         width="93.281815"
         height="77.100197"
         x="40.767647"
         y="48.395985" />
    </clipPath>
  </defs>
  <g
     id="layer1">
    <g
       id="g126296"
       transform="matrix(0.70513016,0.70513016,-0.70513016,0.70513016,105.70363,-44.240482)"
       style="fill:#ffffff;fill-opacity:1">
      <g
         id="path68222"
         transform="rotate(-45,104.86108,106.05521)"
         style="fill:#ffffff;fill-opacity:1">
        <path
           style="color:#000000;fill:#ffffff;fill-opacity:1;stroke-width:23;-inkscape-stroke:none"
           d="M 104.99997,211.86804 V 121.91479"
           id="path102958" />
      </g>
      <g
         id="path104343"
         style="fill:#ffffff;fill-opacity:1">
        <path
           style="color:#000000;fill:#ffffff;fill-opacity:1;stroke-width:25;-inkscape-stroke:none"
           d="M 158.95927,135.73222 95.352727,72.125665"
           id="path118584" />
        <path
           style="color:#000000;fill:#ffffff;fill-opacity:1;-inkscape-stroke:none"
           d="M 104.19141,63.287109 86.513672,80.964844 150.12109,144.57031 167.79883,126.89258 Z"
           id="path118586" />
      </g>
      <g
         id="path104762"
         style="fill:#ffffff;fill-opacity:1">
        <path
           style="color:#000000;fill:#ffffff;fill-opacity:1;stroke-width:25;-inkscape-stroke:none"
           d="M 49.423851,135.73221 113.0304,72.125665"
           id="path118578" />
        <path
           style="color:#000000;fill:#ffffff;fill-opacity:1;-inkscape-stroke:none"
           d="M 104.19141,63.287109 40.585937,126.89258 58.261719,144.57031 121.86914,80.964844 Z"
           id="path118580" />
      </g>
      <g
         id="g105358"
         style="fill:#ffffff;fill-opacity:1">
        <path
           style="color:#000000;fill:#ffffff;fill-opacity:1;stroke-width:25;-inkscape-stroke:none"
           d="M 104.19156,208.84367 V 80.9645"
           id="path105354" />
        <path
           id="path105356"
           style="color:#000000;fill:#ffffff;fill-opacity:1;stroke-width:3.77953;-inkscape-stroke:none"
           d="M 346.55078,306.00977 V 680.2168 c 31.26595,5.25037 63.21992,5.25939 94.48828,0.0273 V 306.00977 Z"
           transform="scale(0.26458333)" />
      </g>
      <path
         id="path106142"
         style="color:#000000;fill:#ffffff;fill-opacity:1;stroke-width:3.77953;-inkscape-stroke:none"
         d="M 393.87695,5.9648438 C 293.44081,5.9648336 193.00407,44.126788 116.67969,120.45117 c -152.648783,152.64877 -152.648702,401.74389 0,554.39258 64.31243,64.31244 145.74479,101.52499 229.87109,111.64648 V 680.2168 c -56.67266,-9.51683 -111.08403,-36.24614 -155.04101,-80.20313 -112.207136,-112.2071 -112.207272,-292.52516 0,-404.73242 112.20726,-112.207257 292.52527,-112.207124 404.73242,0 112.2071,112.20712 112.20725,292.5252 0,404.73242 -43.99943,43.99941 -98.47145,70.73772 -155.20313,80.23047 v 106.26758 c 84.1839,-10.0931 165.67936,-47.31411 230.03321,-111.66797 152.64873,-152.64877 152.64869,-401.7439 0,-554.39258 C 594.7479,44.126825 494.31309,5.9648539 393.87695,5.9648438 Z"
         transform="scale(0.26458333)" />
      <g
         id="g106140"
         style="fill:#ffffff;fill-opacity:1">
        <path
           style="color:#000000;fill:#ffffff;fill-opacity:1;stroke-width:25;-inkscape-stroke:none"
           d="M 104.19156,208.84367 V 80.9645"
           id="path106136" />
      </g>
    </g>
  </g>
</svg>
