<?xml version="1.0" encoding="UTF-8" standalone="no"?>
<!-- Created with Inkscape (http://www.inkscape.org/) -->

<svg
   width="44"
   height="44"
   viewBox="0 0 11.641667 11.641667"
   version="1.1"
   id="svg5"
   inkscape:version="1.1.2 (0a00cf5339, 2022-02-04)"
   sodipodi:docname="logo.svg"
   inkscape:export-filename="/home/indicozy/oponai_web_light.png"
   inkscape:export-xdpi="96"
   inkscape:export-ydpi="96"
   xmlns:inkscape="http://www.inkscape.org/namespaces/inkscape"
   xmlns:sodipodi="http://sodipodi.sourceforge.net/DTD/sodipodi-0.dtd"
   xmlns:xlink="http://www.w3.org/1999/xlink"
   xmlns="http://www.w3.org/2000/svg"
   xmlns:svg="http://www.w3.org/2000/svg">
  <sodipodi:namedview
     id="namedview7"
     pagecolor="#505050"
     bordercolor="#ffffff"
     borderopacity="1"
     inkscape:pageshadow="0"
     inkscape:pageopacity="0"
     inkscape:pagecheckerboard="1"
     inkscape:document-units="mm"
     showgrid="false"
     height="210mm"
     showguides="false"
     inkscape:guide-bbox="true"
     inkscape:snap-bbox="true"
     inkscape:bbox-paths="true"
     inkscape:snap-bbox-edge-midpoints="true"
     inkscape:bbox-nodes="true"
     inkscape:snap-bbox-midpoints="true"
     inkscape:object-paths="true"
     inkscape:snap-intersection-paths="true"
     inkscape:zoom="9.495148"
     inkscape:cx="48.340479"
     inkscape:cy="22.537827"
     inkscape:window-width="1920"
     inkscape:window-height="1014"
     inkscape:window-x="0"
     inkscape:window-y="0"
     inkscape:window-maximized="1"
     inkscape:current-layer="layer1"
     inkscape:snap-global="false"
     inkscape:snap-midpoints="true"
     inkscape:snap-smooth-nodes="true"
     units="px"
     width="54px">
    <sodipodi:guide
       position="90.807432,145.97169"
       orientation="0,-1"
       id="guide35318" />
    <sodipodi:guide
       position="105.84804,28.998097"
       orientation="1,0"
       id="guide35400" />
    <sodipodi:guide
       position="104.99997,105.00009"
       orientation="0,-1"
       id="guide35402" />
    <sodipodi:guide
       position="17.946456,105.00009"
       orientation="1,0"
       id="guide67478" />
  </sodipodi:namedview>
  <defs
     id="defs2">
    <linearGradient
       inkscape:collect="always"
       id="linearGradient44635">
      <stop
         style="stop-color:#5ce3f5;stop-opacity:1"
         offset="0"
         id="stop44631" />
      <stop
         style="stop-color:#0db5d1;stop-opacity:1"
         offset="1"
         id="stop44633" />
    </linearGradient>
    <linearGradient
       inkscape:collect="always"
       id="linearGradient40705">
      <stop
         style="stop-color:#0cb3ce;stop-opacity:1;"
         offset="0"
         id="stop40701" />
      <stop
         style="stop-color:#0cb3ce;stop-opacity:0;"
         offset="1"
         id="stop40703" />
    </linearGradient>
    <clipPath
       clipPathUnits="userSpaceOnUse"
       id="clipPath58421">
      <rect
         style="fill:#ffffff;fill-opacity:1;strokeWidth:0.264583"
         id="rect58423"
         width="93.281815"
         height="77.100197"
         x="40.767647"
         y="48.395985" />
    </clipPath>
    <linearGradient
       inkscape:collect="always"
       xlink:href="#linearGradient40705"
       id="linearGradient40707"
       x1="100.73177"
       y1="72.532585"
       x2="207.84563"
       y2="104.83801"
       gradientUnits="userSpaceOnUse" />
    <linearGradient
       inkscape:collect="always"
       xlink:href="#linearGradient44635"
       id="linearGradient40773"
       gradientUnits="userSpaceOnUse"
       x1="428.81247"
       y1="392.0593"
       x2="690.62457"
       y2="119.38086" />
  </defs>
  <g
     inkscape:label="Layer 1"
     inkscape:groupmode="layer"
     id="layer1">
    <g
       id="path68222"
       transform="matrix(0.99720464,0,0,0.99720464,0.29365786,-1.2757917)"
       style="fill:#121416;fill-opacity:1" />
    <g
       id="path104343"
       style="fill:#0cb3ce;fill-opacity:0"
       transform="matrix(0.03968307,0.03968307,-0.03968307,0.03968307,5.860429,-2.489752)">
      <path
         style="color:#000000;fill:url(#linearGradient40707);fill-opacity:1;strokeWidth:25;-inkscape-stroke:none"
         d="M 158.95927,135.73222 95.352727,72.125665"
         id="path118584" />
      <path
         id="path118586"
         style="color:#000000;fill:url(#linearGradient40773);fill-opacity:1;strokeWidth:3.76896;-inkscape-stroke:none"
         d="M 396.84961,0 C 181.5751,-9.1666923e-6 5.9316323,175.64359 5.9316406,390.91797 5.9316334,481.61525 37.111898,565.27544 89.294922,631.73242 l 74.937498,-74.93554 c -33.251,-46.67222 -52.77149,-103.88808 -52.77148,-165.87891 -3e-5,-158.24123 127.14722,-285.38868 285.38867,-285.38867 158.24145,0 285.39062,127.14741 285.39062,285.38867 0,158.24126 -127.14921,285.39062 -285.39062,285.39062 -62.05063,-3e-5 -119.31292,-19.55561 -166.00977,-52.86523 L 155.90625,698.375 c 66.47755,52.24365 150.18768,83.46289 240.94336,83.46289 215.27448,-4e-5 390.91992,-175.64551 390.91992,-390.91992 -4e-5,-107.6372 -43.90991,-205.36499 -114.73047,-276.18555 C 602.2185,43.911861 504.48685,-1.4102603e-6 396.84961,0 Z m -166.00977,623.44336 183.46094,-183.46094 0.002,178.17969 h 94.22461 l -0.006,-339.0293 H 169.49805 l -0.006,94.21875 178.18359,0.002 -183.44336,183.44336 c 18.34437,25.74875 40.86986,48.28752 66.60742,66.64648 z"
         transform="matrix(0.18761312,-0.18761312,0.18761312,0.18761312,-43.582839,106.32371)" />
    </g>
    <g
       id="path104762"
       style="fill:#121416;fill-opacity:1"
       transform="matrix(0.70513016,0.70513016,-0.70513016,0.70513016,105.70363,-44.240482)" />
    <g
       id="g105358"
       style="fill:#121416;fill-opacity:1"
       transform="matrix(0.70513016,0.70513016,-0.70513016,0.70513016,105.70363,-44.240482)" />
    <g
       id="g106140"
       style="fill:#121416;fill-opacity:1"
       transform="matrix(0.70513016,0.70513016,-0.70513016,0.70513016,105.70363,-44.240482)" />
  </g>
</svg>
